<svg width="40" height="40" viewBox="0 0 60 60" fill="none" xmlns="http://www.w3.org/2000/svg">
<path d="M59.6923 58.8002C59.4897 59.165 59.1982 59.468 58.8473 59.6786C58.4964 59.8893 58.0983 60.0001 57.6931 60H2.30545C1.90055 59.9996 1.50288 59.8884 1.15237 59.6776C0.801869 59.4668 0.510871 59.1638 0.308598 58.7991C0.106324 58.4344 -0.000103876 58.0207 7.60766e-08 57.5997C0.000104028 57.1787 0.106736 56.7651 0.30919 56.4005C4.7027 48.5026 11.4733 42.8393 19.3747 40.1547C15.4663 37.7354 12.4297 34.049 10.7313 29.6615C9.03283 25.2741 8.76644 20.4282 9.97301 15.8681C11.1796 11.308 13.7924 7.28575 17.4102 4.41913C21.028 1.55252 25.4508 0 29.9993 0C34.5478 0 38.9706 1.55252 42.5884 4.41913C46.2062 7.28575 48.819 11.308 50.0256 15.8681C51.2321 20.4282 50.9657 25.2741 49.2673 29.6615C47.5689 34.049 44.5323 37.7354 40.6239 40.1547C48.5253 42.8393 55.2959 48.5026 59.6894 56.4005C59.8924 56.765 59.9995 57.1787 60 57.5999C60.0005 58.0212 59.8944 58.4351 59.6923 58.8002Z" fill="black"/>
</svg>
